<?xml version="1.0" standalone="no"?>
<!DOCTYPE svg PUBLIC "-//W3C//DTD SVG 20010904//EN"
 "http://www.w3.org/TR/2001/REC-SVG-20010904/DTD/svg10.dtd">
<svg version="1.0" xmlns="http://www.w3.org/2000/svg"
 width="95.000000pt" height="145.000000pt" viewBox="0 0 95.000000 145.000000"
 preserveAspectRatio="xMidYMid meet">

<g transform="translate(0.000000,145.000000) scale(0.100000,-0.100000)"
fill="#FFFFFF" stroke="none">
<path d="M365 1347 c-164 -42 -285 -180 -341 -387 -27 -102 -25 -320 5 -430
45 -167 127 -304 213 -354 135 -78 312 -68 426 24 79 63 135 151 172 267 89
277 49 563 -105 755 -85 106 -240 158 -370 125z m229 -61 c100 -49 187 -173
227 -323 30 -112 31 -317 1 -426 -31 -113 -77 -200 -141 -266 -77 -79 -134
-104 -236 -105 -185 -1 -296 105 -372 351 -24 78 -26 104 -27 238 0 165 7 200
60 312 58 122 163 217 268 244 59 15 161 4 220 -25z"/>
<path d="M360 1253 c-52 -18 -129 -74 -159 -114 l-21 -28 28 -3 c15 -2 38 3
51 11 18 12 29 12 53 3 20 -7 37 -8 49 -2 29 16 65 11 85 -11 16 -18 19 -38
20 -128 2 -134 1 -131 19 -131 13 0 15 21 15 128 0 127 0 128 -30 162 -36 43
-36 44 -6 58 23 10 27 8 51 -34 25 -43 27 -44 66 -38 35 6 44 3 70 -22 81 -77
62 -275 -31 -326 -48 -26 -114 -21 -118 8 -2 16 -8 20 -23 17 -17 -5 -19 -15
-19 -109 0 -57 4 -104 9 -104 18 0 30 27 33 75 l3 50 52 3 c66 4 117 -18 143
-60 26 -43 25 -80 -2 -128 l-23 -39 21 -43 21 -43 17 33 c27 52 55 174 62 270
12 168 -41 357 -130 459 -73 83 -208 122 -306 86z"/>
<path d="M263 1068 c-4 -7 -9 -68 -11 -135 l-4 -123 -29 0 -29 0 5 63 c3 34 8
84 10 110 5 58 -1 77 -26 77 -66 0 -107 -294 -66 -478 17 -75 70 -204 92 -222
16 -13 30 236 20 334 -6 56 -5 66 8 66 43 0 47 -9 47 -106 0 -93 0 -94 26
-100 15 -4 43 -3 63 2 l36 9 0 255 c0 227 -2 255 -16 258 -22 4 -27 -19 -35
-156 -7 -106 -8 -112 -29 -112 -21 0 -21 2 -17 135 4 131 4 135 -16 135 -11 0
-24 -6 -29 -12z"/>
<path d="M562 1068 c-8 -8 -12 -53 -12 -135 0 -117 1 -123 20 -123 34 0 68 43
75 95 8 52 1 125 -15 155 -12 22 -50 26 -68 8z"/>
<path d="M563 673 c-18 -6 -17 -73 1 -73 7 0 30 -11 51 -25 20 -15 39 -24 41
-22 15 15 14 65 -3 85 -19 23 -69 42 -90 35z"/>
<path d="M550 530 c0 -13 7 -20 18 -20 26 0 34 11 21 27 -17 20 -39 16 -39 -7z"/>
<path d="M467 533 c-4 -3 -7 -60 -7 -125 l0 -119 -27 3 -28 3 0 105 0 105 -62
0 -63 1 0 -119 0 -118 53 -24 c34 -16 70 -25 103 -25 64 0 64 -1 64 183 0 107
-3 137 -13 137 -8 0 -17 -3 -20 -7z"/>
<path d="M564 462 c-11 -7 -19 -92 -15 -180 l1 -43 42 23 c57 31 89 80 78 116
-26 85 -31 92 -63 92 -18 0 -37 -4 -43 -8z"/>
</g>
</svg>
