<?xml version="1.0" standalone="no"?>
<!DOCTYPE svg PUBLIC "-//W3C//DTD SVG 20010904//EN"
 "http://www.w3.org/TR/2001/REC-SVG-20010904/DTD/svg10.dtd">
<svg version="1.0" xmlns="http://www.w3.org/2000/svg"
 width="50.000000pt" height="50.000000pt" viewBox="0 0 50.000000 50.000000"
 preserveAspectRatio="xMidYMid meet">

<g transform="translate(0.000000,50.000000) scale(0.100000,-0.100000)"
fill="#FFFFFF" stroke="none">
<path d="M279 412 c-22 -20 -32 -38 -33 -61 -1 -32 -2 -33 -39 -27 -46 8 -103
35 -145 71 -25 21 -31 23 -36 9 -12 -30 -6 -61 16 -89 l22 -28 -22 5 c-13 4
-22 2 -22 -5 0 -20 39 -77 52 -77 9 0 9 -3 -1 -9 -12 -8 -12 -13 2 -35 10 -14
28 -28 42 -32 14 -3 25 -10 25 -14 0 -10 -44 -28 -95 -38 l-40 -8 53 -18 c67
-23 170 -18 227 9 85 42 148 132 161 232 4 27 15 56 25 66 25 24 24 30 -3 21
-23 -7 -23 -6 -4 15 23 25 16 37 -13 21 -17 -8 -26 -8 -43 5 -36 25 -93 19
-129 -13z"/>
</g>
</svg>
