<?xml version="1.0" standalone="no"?>
<!DOCTYPE svg PUBLIC "-//W3C//DTD SVG 20010904//EN"
 "http://www.w3.org/TR/2001/REC-SVG-20010904/DTD/svg10.dtd">
<svg version="1.0" xmlns="http://www.w3.org/2000/svg"
 width="50.000000pt" height="50.000000pt" viewBox="0 0 50.000000 50.000000"
 preserveAspectRatio="xMidYMid meet">

<g transform="translate(0.000000,50.000000) scale(0.100000,-0.100000)"
fill="#FFFFFF" stroke="none">
<path d="M149 442 c-147 -76 -159 -281 -22 -371 26 -17 57 -31 70 -31 22 0 23
3 23 75 l0 75 -30 0 c-27 0 -30 3 -30 30 0 27 3 30 30 30 28 0 30 2 30 40 0
30 7 47 25 66 34 34 98 31 103 -3 3 -18 -1 -23 -20 -23 -32 0 -48 -18 -48 -52
0 -24 4 -28 30 -28 27 0 30 -3 30 -30 0 -27 -3 -30 -30 -30 l-30 0 0 -79 0
-80 32 9 c97 28 164 125 156 225 -7 78 -48 141 -117 177 -71 37 -131 37 -202
0z"/>
</g>
</svg>
