<?xml version="1.0" standalone="no"?>
<!DOCTYPE svg PUBLIC "-//W3C//DTD SVG 20010904//EN"
 "http://www.w3.org/TR/2001/REC-SVG-20010904/DTD/svg10.dtd">
<svg version="1.0" xmlns="http://www.w3.org/2000/svg"
 width="50.000000pt" height="50.000000pt" viewBox="0 0 50.000000 50.000000"
 preserveAspectRatio="xMidYMid meet">

<g transform="translate(0.000000,50.000000) scale(0.100000,-0.100000)"
fill="#FFFFFF" stroke="none">
<path d="M303 394 c-21 -10 -37 -30 -48 -57 -38 -96 -86 -128 -151 -101 -45
19 -44 19 -44 -26 0 -34 4 -42 24 -50 14 -5 30 -18 36 -30 25 -46 99 -45 121
2 13 27 92 88 114 88 28 0 54 19 71 51 40 78 -44 163 -123 123z m96 -58 c12
-25 11 -31 -6 -55 -26 -33 -65 -39 -92 -12 -25 25 -27 49 -5 79 24 35 84 28
103 -12z m-185 -132 c23 -22 20 -71 -3 -84 -27 -14 -44 -13 -67 4 -17 13 -15
14 22 9 37 -5 43 -3 49 18 6 18 2 28 -21 46 -21 17 -24 23 -12 23 9 0 24 -7
32 -16z"/>
<path d="M312 348 c-15 -15 -15 -51 0 -66 27 -27 78 -7 78 29 0 39 -52 63 -78
37z"/>
</g>
</svg>
