<?xml version="1.0" standalone="no"?>
<!DOCTYPE svg PUBLIC "-//W3C//DTD SVG 20010904//EN"
 "http://www.w3.org/TR/2001/REC-SVG-20010904/DTD/svg10.dtd">
<svg version="1.0" xmlns="http://www.w3.org/2000/svg"
 width="1804.000000pt" height="1920.000000pt" viewBox="0 0 1804.000000 1920.000000"
 preserveAspectRatio="xMidYMid meet">

<g transform="translate(0.000000,1920.000000) scale(0.100000,-0.100000)"
fill="#000000" stroke="none">
<path d="M8835 19194 c-606 -23 -1127 -83 -1675 -195 -1488 -304 -2909 -985
-4060 -1944 -417 -348 -820 -750 -1156 -1155 -1073 -1292 -1731 -2837 -1899
-4460 -34 -333 -40 -455 -39 -875 0 -517 19 -832 80 -1305 186 -1453 686
-2808 1459 -3950 1088 -1609 2663 -2722 4500 -3179 134 -33 394 -91 410 -91 3
0 6 -406 7 -903 l3 -902 27 -50 c77 -146 244 -218 388 -168 33 11 711 427
1700 1043 l1645 1024 195 32 c264 43 390 68 620 120 2946 672 5380 2718 6437
5414 515 1312 676 2723 473 4134 -306 2122 -1434 4062 -3163 5440 -1341 1069
-2973 1735 -4702 1920 -342 37 -950 61 -1250 50z m748 -674 c2099 -126 4023
-978 5472 -2425 1285 -1283 2076 -2911 2269 -4670 33 -298 40 -451 41 -825 0
-552 -35 -925 -136 -1434 -404 -2043 -1668 -3875 -3504 -5079 -1036 -678
-2244 -1141 -3455 -1322 -96 -15 -204 -33 -239 -41 -56 -12 -219 -110 -1495
-902 l-1431 -888 -5 731 c-6 829 -1 781 -91 879 -62 68 -112 89 -270 116
-1781 304 -3329 1255 -4429 2722 -745 993 -1257 2187 -1494 3483 -149 813
-193 1710 -120 2450 224 2302 1504 4393 3514 5745 1252 841 2741 1348 4255
1450 88 6 180 12 205 13 117 8 760 6 913 -3z"/>
</g>
</svg>
